<svg version="1.1" id="Layer_1" xmlns="http://www.w3.org/2000/svg" xmlns:xlink="http://www.w3.org/1999/xlink" x="0px" y="0px"
	 width="100%" viewBox="0 0 2819 1878" enable-background="new 0 0 2819 1878" xml:space="preserve">
<path fill="#FFFFFF" opacity="1.000000" stroke="none" 
	d="
M1970.000000,1880.000000 
	C1313.333374,1880.000000 657.666687,1880.000000 2.000000,1880.000000 
	C2.000000,1254.000000 2.000000,628.000000 2.000000,2.000000 
	C942.000000,2.000000 1882.000000,2.000000 2822.000000,2.000000 
	C2822.000000,628.000000 2822.000000,1254.000000 2822.000000,1880.000000 
	C2538.333252,1880.000000 2254.666748,1880.000000 1970.000000,1880.000000 
M945.000366,1144.923096 
	C907.802124,1144.923096 870.603882,1144.923096 832.656738,1144.923096 
	C832.656738,1113.177612 832.656738,1082.900757 832.656738,1052.624023 
	C832.656738,1022.294434 832.656738,991.964844 832.656738,961.635254 
	C832.656738,930.972412 832.656738,900.309509 832.656738,869.646667 
	C832.656738,839.317078 832.672546,808.987549 832.652222,778.657959 
	C832.631958,748.523499 832.743591,718.386169 832.580750,688.346802 
	C814.594055,688.346802 798.060181,688.346802 780.576355,688.346802 
	C780.576355,692.801880 780.576355,696.722900 780.576355,700.643921 
	C780.576294,892.286804 780.576538,1083.929688 780.575134,1275.572632 
	C780.575134,1280.905273 780.455750,1286.239990 780.566162,1291.570190 
	C781.094604,1317.080322 795.913330,1337.042236 820.533447,1343.890747 
	C828.403076,1346.079834 836.959778,1346.525757 845.203491,1346.534668 
	C984.852661,1346.687012 1124.502075,1346.644287 1264.151367,1346.644775 
	C1268.032837,1346.644775 1271.914307,1346.644775 1275.668945,1346.644775 
	C1275.842529,1348.518555 1276.162476,1349.294189 1275.920044,1349.800415 
	C1274.628906,1352.494751 1273.304565,1355.184570 1271.797485,1357.762329 
	C1248.039673,1398.397583 1215.169312,1429.809570 1174.838257,1453.731934 
	C1169.796997,1456.722046 1164.759155,1458.107910 1158.837524,1458.073120 
	C1123.176514,1457.862793 1087.513550,1457.969482 1051.851318,1457.975098 
	C1049.185303,1457.975464 1046.505981,1457.848999 1043.855713,1458.064209 
	C1031.509644,1459.066040 1022.095459,1468.670288 1021.433594,1480.816895 
	C1020.720581,1493.900635 1028.839722,1504.356201 1041.587891,1506.473755 
	C1044.849731,1507.015503 1048.220947,1507.061890 1051.541870,1507.062134 
	C1291.845459,1507.087769 1532.148926,1507.087402 1772.452515,1507.064209 
	C1775.774536,1507.063843 1779.140991,1507.029541 1782.410645,1506.521362 
	C1794.781494,1504.598267 1803.234253,1494.520020 1803.061890,1482.177490 
	C1802.884521,1469.475464 1793.558716,1459.307861 1780.845337,1458.095459 
	C1778.200806,1457.843140 1775.517212,1457.976562 1772.851562,1457.976074 
	C1733.856445,1457.969604 1694.860718,1458.054199 1655.866699,1457.847046 
	C1651.743896,1457.825195 1647.104736,1457.023315 1643.591919,1455.024658 
	C1601.296265,1430.960327 1567.287476,1398.359131 1542.941528,1356.005981 
	C1541.513794,1353.522461 1540.457031,1350.825562 1538.475952,1346.639771 
	C1545.240723,1346.639771 1550.464600,1346.639648 1555.688477,1346.639771 
	C1694.004639,1346.640869 1832.320801,1346.648438 1970.636963,1346.620239 
	C1976.296875,1346.619141 1982.005371,1346.694214 1987.608398,1346.032593 
	C2013.820435,1342.937622 2036.188965,1320.354492 2036.153320,1292.702393 
	C2035.896729,1094.060669 2036.024414,895.418457 2036.002808,696.776428 
	C2036.002441,693.918945 2035.651733,691.061462 2035.472290,688.321289 
	C2017.995117,688.321289 2001.455811,688.321289 1983.834473,688.321289 
	C1983.834473,840.613647 1983.834473,992.395874 1983.834473,1144.923584 
	C1637.494629,1144.923584 1292.247559,1144.923584 945.000366,1144.923096 
M1087.000000,374.288818 
	C1074.002808,374.288788 1061.005493,374.288818 1048.008301,374.288727 
	C973.025757,374.288239 898.043030,374.376465 823.060974,374.182373 
	C812.929138,374.156158 806.515686,377.461548 802.061523,387.188629 
	C772.250732,452.291077 742.129333,517.253540 711.642639,582.042114 
	C706.512573,592.944214 706.252441,602.885925 710.953979,613.605530 
	C720.618408,635.640564 738.137146,648.398865 760.249695,655.744263 
	C781.163391,662.691467 802.788452,663.608765 824.492249,662.090759 
	C856.711243,659.837158 887.002197,652.163269 910.973328,627.882385 
	C912.657227,629.277893 914.228210,630.438538 915.637878,631.770020 
	C928.009277,643.456421 942.579956,651.301270 958.834473,655.926880 
	C988.890808,664.479980 1019.330627,664.658813 1049.850586,658.946167 
	C1072.261108,654.751343 1092.495361,645.996643 1108.403076,628.937500 
	C1108.774414,628.539307 1109.604492,628.568909 1110.567627,628.303284 
	C1111.413086,628.991577 1112.504272,629.724915 1113.410645,630.641052 
	C1127.171631,644.550354 1144.052490,652.837708 1162.713867,657.772461 
	C1184.615967,663.564270 1206.963867,663.794312 1229.220825,661.271362 
	C1250.936890,658.809692 1271.585815,652.363281 1289.833252,639.772278 
	C1295.005005,636.203735 1299.773193,632.049866 1304.984863,627.961731 
	C1319.926270,643.423462 1338.015381,653.001648 1358.572021,657.685303 
	C1387.864258,664.359253 1417.327026,664.491333 1446.798462,658.606384 
	C1464.344971,655.102661 1480.721313,648.920593 1494.707886,637.389709 
	C1497.728027,634.899902 1500.600464,632.230957 1503.802002,629.414673 
	C1505.451538,630.782410 1506.776245,631.731567 1507.926636,632.858582 
	C1517.620605,642.356018 1529.015381,649.203613 1541.760864,653.558411 
	C1576.841919,665.544617 1612.417603,665.266052 1648.097900,656.692749 
	C1667.832520,651.950806 1685.503784,642.953247 1700.448608,628.321106 
	C1710.209473,637.650146 1720.398804,645.538879 1732.541748,650.550293 
	C1775.111206,668.118530 1817.850952,666.094482 1860.174683,650.385193 
	C1873.083618,645.593750 1884.804321,637.600586 1897.821777,630.673340 
	C1897.450073,630.447571 1898.442017,630.795471 1899.080688,631.475220 
	C1911.133301,644.302490 1926.375000,651.483887 1943.009399,655.998535 
	C1973.774170,664.348389 2004.875366,664.605469 2036.064697,658.885315 
	C2052.917969,655.794434 2068.843262,649.988892 2083.069580,640.192566 
	C2092.814453,633.482361 2101.090088,625.330261 2105.956055,614.317200 
	C2109.525635,606.237976 2111.128418,598.170105 2107.884277,589.212341 
	C2083.395752,521.595276 2059.044189,453.927460 2035.049438,386.134186 
	C2032.062988,377.696411 2026.775024,374.675018 2018.782227,374.325195 
	C2015.788452,374.194183 2012.784546,374.289337 2009.785278,374.289337 
	C1702.856812,374.288727 1395.928467,374.288879 1087.000000,374.288818 
M1254.904907,878.422424 
	C1260.703979,841.690552 1274.760742,808.755798 1300.016235,781.069580 
	C1348.286865,728.153076 1420.908813,715.528687 1481.445312,736.717529 
	C1518.557373,749.707336 1544.020752,775.448669 1556.955811,812.649170 
	C1569.054443,847.444885 1568.582275,882.686157 1557.485596,917.688416 
	C1553.213867,931.163208 1546.291504,943.322510 1535.699097,953.039246 
	C1528.932251,959.246338 1521.283081,963.729004 1511.943481,964.804199 
	C1501.330444,966.025940 1494.066406,961.526184 1492.164185,951.168518 
	C1490.919434,944.390503 1490.272827,937.149963 1491.229736,930.381165 
	C1495.470337,900.390320 1500.382324,870.494324 1505.062988,840.565735 
	C1507.009399,828.119690 1508.985107,815.678162 1511.012573,802.821289 
	C1506.401489,800.911255 1502.587646,798.684814 1498.479614,797.746948 
	C1484.236084,794.495056 1470.014282,790.612122 1455.556519,788.950684 
	C1428.950317,785.893005 1402.839722,789.345398 1378.603882,801.207153 
	C1327.571289,826.183960 1303.164673,868.565796 1300.387939,924.287598 
	C1299.582275,940.453247 1302.332520,956.246094 1309.984985,970.742493 
	C1320.769897,991.173401 1337.773926,1002.622375 1360.915039,1004.312988 
	C1393.197021,1006.671326 1418.532837,993.860657 1437.892578,968.389160 
	C1439.971436,965.654053 1442.028687,962.902527 1444.967407,959.001892 
	C1445.734863,963.314209 1446.017822,965.606750 1446.559448,967.836548 
	C1451.529541,988.305359 1464.690918,1000.984070 1484.616577,1003.793762 
	C1498.277344,1005.720032 1511.883423,1004.767395 1525.199829,1000.927002 
	C1559.352539,991.077759 1581.846069,968.165527 1595.734497,936.428833 
	C1609.418945,905.158264 1612.897827,872.215881 1608.312500,838.546326 
	C1600.030640,777.732056 1568.254028,733.669861 1512.543701,707.653687 
	C1478.819214,691.904785 1443.061279,687.948792 1406.182983,691.597107 
	C1347.408691,697.411621 1297.896240,721.627380 1260.187134,767.190552 
	C1215.410034,821.293823 1199.181519,884.217041 1210.038696,953.221924 
	C1220.226807,1017.973389 1255.969604,1065.001587 1316.802856,1090.046021 
	C1377.899414,1115.198730 1439.273315,1109.698364 1499.574951,1085.061401 
	C1500.474121,1084.693970 1501.256592,1084.041016 1502.114502,1083.508301 
	C1498.410278,1071.792236 1494.942993,1060.825684 1491.520630,1050.000977 
	C1489.925293,1050.233643 1489.207031,1050.180908 1488.633789,1050.444336 
	C1452.794067,1066.909424 1415.283081,1071.164185 1376.414307,1066.117310 
	C1319.169434,1058.684326 1275.374146,1020.921021 1259.550537,965.338196 
	C1251.565674,937.290527 1250.881958,908.870239 1254.904907,878.422424 
z"/>
<path fill="#203B55" opacity="1.000000" stroke="none" 
	d="
M946.000366,1144.923340 
	C1292.247559,1144.923584 1637.494629,1144.923584 1983.834473,1144.923584 
	C1983.834473,992.395874 1983.834473,840.613647 1983.834473,688.321289 
	C2001.455811,688.321289 2017.995117,688.321289 2035.472290,688.321289 
	C2035.651733,691.061462 2036.002441,693.918945 2036.002808,696.776428 
	C2036.024414,895.418457 2035.896729,1094.060669 2036.153320,1292.702393 
	C2036.188965,1320.354492 2013.820435,1342.937622 1987.608398,1346.032593 
	C1982.005371,1346.694214 1976.296875,1346.619141 1970.636963,1346.620239 
	C1832.320801,1346.648438 1694.004639,1346.640869 1555.688477,1346.639771 
	C1550.464600,1346.639648 1545.240723,1346.639771 1538.475952,1346.639771 
	C1540.457031,1350.825562 1541.513794,1353.522461 1542.941528,1356.005981 
	C1567.287476,1398.359131 1601.296265,1430.960327 1643.591919,1455.024658 
	C1647.104736,1457.023315 1651.743896,1457.825195 1655.866699,1457.847046 
	C1694.860718,1458.054199 1733.856445,1457.969604 1772.851562,1457.976074 
	C1775.517212,1457.976562 1778.200806,1457.843140 1780.845337,1458.095459 
	C1793.558716,1459.307861 1802.884521,1469.475464 1803.061890,1482.177490 
	C1803.234253,1494.520020 1794.781494,1504.598267 1782.410645,1506.521362 
	C1779.140991,1507.029541 1775.774536,1507.063843 1772.452515,1507.064209 
	C1532.148926,1507.087402 1291.845459,1507.087769 1051.541870,1507.062134 
	C1048.220947,1507.061890 1044.849731,1507.015503 1041.587891,1506.473755 
	C1028.839722,1504.356201 1020.720581,1493.900635 1021.433594,1480.816895 
	C1022.095459,1468.670288 1031.509644,1459.066040 1043.855713,1458.064209 
	C1046.505981,1457.848999 1049.185303,1457.975464 1051.851318,1457.975098 
	C1087.513550,1457.969482 1123.176514,1457.862793 1158.837524,1458.073120 
	C1164.759155,1458.107910 1169.796997,1456.722046 1174.838257,1453.731934 
	C1215.169312,1429.809570 1248.039673,1398.397583 1271.797485,1357.762329 
	C1273.304565,1355.184570 1274.628906,1352.494751 1275.920044,1349.800415 
	C1276.162476,1349.294189 1275.842529,1348.518555 1275.668945,1346.644775 
	C1271.914307,1346.644775 1268.032837,1346.644775 1264.151367,1346.644775 
	C1124.502075,1346.644287 984.852661,1346.687012 845.203491,1346.534668 
	C836.959778,1346.525757 828.403076,1346.079834 820.533447,1343.890747 
	C795.913330,1337.042236 781.094604,1317.080322 780.566162,1291.570190 
	C780.455750,1286.239990 780.575134,1280.905273 780.575134,1275.572632 
	C780.576538,1083.929688 780.576294,892.286804 780.576355,700.643921 
	C780.576355,696.722900 780.576355,692.801880 780.576355,688.346802 
	C798.060181,688.346802 814.594055,688.346802 832.580750,688.346802 
	C832.743591,718.386169 832.631958,748.523499 832.652222,778.657959 
	C832.672546,808.987549 832.656738,839.317078 832.656738,869.646667 
	C832.656738,900.309509 832.656738,930.972412 832.656738,961.635254 
	C832.656738,991.964844 832.656738,1022.294434 832.656738,1052.624023 
	C832.656738,1082.900757 832.656738,1113.177612 832.656738,1144.923096 
	C870.603882,1144.923096 907.802124,1144.923096 946.000366,1144.923340 
M1362.386719,1277.618530 
	C1363.350708,1280.447998 1364.122437,1283.361084 1365.309204,1286.093750 
	C1373.903931,1305.884277 1393.880981,1316.911865 1415.615479,1313.959473 
	C1435.798950,1311.217896 1451.632446,1294.860962 1455.093384,1273.176514 
	C1458.135254,1254.118774 1446.851074,1233.741089 1428.397827,1224.967163 
	C1409.530396,1215.996582 1386.870239,1220.785767 1372.955078,1236.782104 
	C1363.131958,1248.074707 1360.201416,1261.332886 1362.386719,1277.618530 
z"/>
<path fill="#4588AC" opacity="1.000000" stroke="none" 
	d="
M1088.000000,374.288910 
	C1395.928467,374.288879 1702.856812,374.288727 2009.785278,374.289337 
	C2012.784546,374.289337 2015.788452,374.194183 2018.782227,374.325195 
	C2026.775024,374.675018 2032.062988,377.696411 2035.049438,386.134186 
	C2059.044189,453.927460 2083.395752,521.595276 2107.884277,589.212341 
	C2111.128418,598.170105 2109.525635,606.237976 2105.956055,614.317200 
	C2101.090088,625.330261 2092.814453,633.482361 2083.069580,640.192566 
	C2068.843262,649.988892 2052.917969,655.794434 2036.064697,658.885315 
	C2004.875366,664.605469 1973.774170,664.348389 1943.009399,655.998535 
	C1926.375000,651.483887 1911.133301,644.302490 1899.080688,631.475220 
	C1898.442017,630.795471 1897.450073,630.447571 1897.821777,630.673340 
	C1884.804321,637.600586 1873.083618,645.593750 1860.174683,650.385193 
	C1817.850952,666.094482 1775.111206,668.118530 1732.541748,650.550293 
	C1720.398804,645.538879 1710.209473,637.650146 1700.448608,628.321106 
	C1685.503784,642.953247 1667.832520,651.950806 1648.097900,656.692749 
	C1612.417603,665.266052 1576.841919,665.544617 1541.760864,653.558411 
	C1529.015381,649.203613 1517.620605,642.356018 1507.926636,632.858582 
	C1506.776245,631.731567 1505.451538,630.782410 1503.802002,629.414673 
	C1500.600464,632.230957 1497.728027,634.899902 1494.707886,637.389709 
	C1480.721313,648.920593 1464.344971,655.102661 1446.798462,658.606384 
	C1417.327026,664.491333 1387.864258,664.359253 1358.572021,657.685303 
	C1338.015381,653.001648 1319.926270,643.423462 1304.984863,627.961731 
	C1299.773193,632.049866 1295.005005,636.203735 1289.833252,639.772278 
	C1271.585815,652.363281 1250.936890,658.809692 1229.220825,661.271362 
	C1206.963867,663.794312 1184.615967,663.564270 1162.713867,657.772461 
	C1144.052490,652.837708 1127.171631,644.550354 1113.410645,630.641052 
	C1112.504272,629.724915 1111.413086,628.991577 1110.567627,628.303284 
	C1109.604492,628.568909 1108.774414,628.539307 1108.403076,628.937500 
	C1092.495361,645.996643 1072.261108,654.751343 1049.850586,658.946167 
	C1019.330627,664.658813 988.890808,664.479980 958.834473,655.926880 
	C942.579956,651.301270 928.009277,643.456421 915.637878,631.770020 
	C914.228210,630.438538 912.657227,629.277893 910.973328,627.882385 
	C887.002197,652.163269 856.711243,659.837158 824.492249,662.090759 
	C802.788452,663.608765 781.163391,662.691467 760.249695,655.744263 
	C738.137146,648.398865 720.618408,635.640564 710.953979,613.605530 
	C706.252441,602.885925 706.512573,592.944214 711.642639,582.042114 
	C742.129333,517.253540 772.250732,452.291077 802.061523,387.188629 
	C806.515686,377.461548 812.929138,374.156158 823.060974,374.182373 
	C898.043030,374.376465 973.025757,374.288239 1048.008301,374.288727 
	C1061.005493,374.288818 1074.002808,374.288788 1088.000000,374.288910 
M1321.865234,461.000031 
	C1321.750854,504.628906 1321.519775,548.258240 1321.668579,591.886169 
	C1321.687256,597.365601 1322.851562,603.194763 1324.956299,608.249207 
	C1332.216187,625.682800 1347.023926,634.379150 1364.116699,639.625427 
	C1385.818115,646.286255 1408.042725,647.052063 1430.336182,643.455750 
	C1445.606934,640.992188 1460.149536,636.224365 1472.063721,625.715454 
	C1481.926880,617.015503 1488.460815,606.558289 1488.457397,592.860413 
	C1488.440918,528.247253 1488.455078,463.634033 1488.402344,399.020874 
	C1488.400513,396.834625 1487.798828,394.648834 1487.490479,392.556061 
	C1432.053711,392.556061 1377.276733,392.556061 1321.866699,392.556061 
	C1321.866699,415.155945 1321.866699,437.077972 1321.865234,461.000031 
M1712.530884,486.487152 
	C1713.567383,521.101624 1714.911499,555.710999 1715.484131,590.333069 
	C1715.703613,603.598694 1720.645142,614.130432 1729.618042,623.309509 
	C1738.984375,632.891113 1750.464966,638.696594 1763.292847,641.887451 
	C1789.935547,648.514465 1816.240112,646.274536 1841.960815,637.523071 
	C1857.837280,632.121094 1870.964600,622.781067 1879.077271,607.419128 
	C1881.846924,602.174377 1882.926636,596.924194 1881.783569,591.076965 
	C1879.996582,581.935730 1878.476440,572.742676 1876.784912,563.582336 
	C1868.448120,518.437439 1860.116089,473.291565 1851.726929,428.156372 
	C1849.497070,416.159668 1847.071289,404.199371 1844.775269,392.426971 
	C1799.572266,392.426971 1755.386108,392.426971 1710.638062,392.426971 
	C1711.274048,423.519440 1711.898438,454.049438 1712.530884,486.487152 
M962.446106,471.439148 
	C951.419434,510.488922 940.536804,549.580444 929.237305,588.551086 
	C927.126709,595.830139 927.756897,602.124634 931.146912,608.677246 
	C937.714294,621.371521 947.729309,630.276794 960.705811,635.783142 
	C986.033997,646.530640 1012.271057,647.782288 1039.041748,642.661743 
	C1051.641113,640.251831 1063.431152,635.837463 1073.683105,628.041748 
	C1085.258301,619.239624 1092.987793,607.969116 1094.453979,593.076782 
	C1097.647827,560.635925 1100.832275,528.194092 1104.024536,495.753052 
	C1106.434814,471.258331 1108.894531,446.768341 1111.242798,422.267700 
	C1112.180664,412.482758 1112.878906,402.674805 1113.707520,392.620178 
	C1070.207642,392.620178 1027.791748,392.620178 985.116638,392.620178 
	C977.613953,418.797394 970.289612,444.352417 962.446106,471.439148 
z"/>
<path fill="#213C56" opacity="1.000000" stroke="none" 
	d="
M1254.727173,879.294678 
	C1250.881958,908.870239 1251.565674,937.290527 1259.550537,965.338196 
	C1275.374146,1020.921021 1319.169434,1058.684326 1376.414307,1066.117310 
	C1415.283081,1071.164185 1452.794067,1066.909424 1488.633789,1050.444336 
	C1489.207031,1050.180908 1489.925293,1050.233643 1491.520630,1050.000977 
	C1494.942993,1060.825684 1498.410278,1071.792236 1502.114502,1083.508301 
	C1501.256592,1084.041016 1500.474121,1084.693970 1499.574951,1085.061401 
	C1439.273315,1109.698364 1377.899414,1115.198730 1316.802856,1090.046021 
	C1255.969604,1065.001587 1220.226807,1017.973389 1210.038696,953.221924 
	C1199.181519,884.217041 1215.410034,821.293823 1260.187134,767.190552 
	C1297.896240,721.627380 1347.408691,697.411621 1406.182983,691.597107 
	C1443.061279,687.948792 1478.819214,691.904785 1512.543701,707.653687 
	C1568.254028,733.669861 1600.030640,777.732056 1608.312500,838.546326 
	C1612.897827,872.215881 1609.418945,905.158264 1595.734497,936.428833 
	C1581.846069,968.165527 1559.352539,991.077759 1525.199829,1000.927002 
	C1511.883423,1004.767395 1498.277344,1005.720032 1484.616577,1003.793762 
	C1464.690918,1000.984070 1451.529541,988.305359 1446.559448,967.836548 
	C1446.017822,965.606750 1445.734863,963.314209 1444.967407,959.001892 
	C1442.028687,962.902527 1439.971436,965.654053 1437.892578,968.389160 
	C1418.532837,993.860657 1393.197021,1006.671326 1360.915039,1004.312988 
	C1337.773926,1002.622375 1320.769897,991.173401 1309.984985,970.742493 
	C1302.332520,956.246094 1299.582275,940.453247 1300.387939,924.287598 
	C1303.164673,868.565796 1327.571289,826.183960 1378.603882,801.207153 
	C1402.839722,789.345398 1428.950317,785.893005 1455.556519,788.950684 
	C1470.014282,790.612122 1484.236084,794.495056 1498.479614,797.746948 
	C1502.587646,798.684814 1506.401489,800.911255 1511.012573,802.821289 
	C1508.985107,815.678162 1507.009399,828.119690 1505.062988,840.565735 
	C1500.382324,870.494324 1495.470337,900.390320 1491.229736,930.381165 
	C1490.272827,937.149963 1490.919434,944.390503 1492.164185,951.168518 
	C1494.066406,961.526184 1501.330444,966.025940 1511.943481,964.804199 
	C1521.283081,963.729004 1528.932251,959.246338 1535.699097,953.039246 
	C1546.291504,943.322510 1553.213867,931.163208 1557.485596,917.688416 
	C1568.582275,882.686157 1569.054443,847.444885 1556.955811,812.649170 
	C1544.020752,775.448669 1518.557373,749.707336 1481.445312,736.717529 
	C1420.908813,715.528687 1348.286865,728.153076 1300.016235,781.069580 
	C1274.760742,808.755798 1260.703979,841.690552 1254.727173,879.294678 
M1367.941284,946.893066 
	C1378.024536,956.795227 1389.658203,959.703552 1401.426270,954.027527 
	C1407.280396,951.203979 1412.823120,947.118591 1417.480957,942.556641 
	C1427.916504,932.335876 1434.543091,919.576599 1437.848145,905.457336 
	C1440.566284,893.845703 1442.119263,881.953003 1443.982544,870.152222 
	C1445.628296,859.729126 1446.989136,849.261047 1448.542847,838.341797 
	C1445.625244,837.511536 1443.500122,836.627808 1441.294800,836.322937 
	C1421.758911,833.622314 1404.331665,838.407654 1389.520020,851.588379 
	C1374.012329,865.388611 1365.262085,882.906555 1361.808105,903.235474 
	C1359.313354,917.918457 1358.687378,932.350830 1367.941284,946.893066 
z"/>
<path fill="#FBFCFC" opacity="1.000000" stroke="none" 
	d="
M1362.257446,1276.762451 
	C1360.201416,1261.332886 1363.131958,1248.074707 1372.955078,1236.782104 
	C1386.870239,1220.785767 1409.530396,1215.996582 1428.397827,1224.967163 
	C1446.851074,1233.741089 1458.135254,1254.118774 1455.093384,1273.176514 
	C1451.632446,1294.860962 1435.798950,1311.217896 1415.615479,1313.959473 
	C1393.880981,1316.911865 1373.903931,1305.884277 1365.309204,1286.093750 
	C1364.122437,1283.361084 1363.350708,1280.447998 1362.257446,1276.762451 
z"/>
<path fill="#FEFFFF" opacity="1.000000" stroke="none" 
	d="
M1321.865967,460.000000 
	C1321.866699,437.077972 1321.866699,415.155945 1321.866699,392.556061 
	C1377.276733,392.556061 1432.053711,392.556061 1487.490479,392.556061 
	C1487.798828,394.648834 1488.400513,396.834625 1488.402344,399.020874 
	C1488.455078,463.634033 1488.440918,528.247253 1488.457397,592.860413 
	C1488.460815,606.558289 1481.926880,617.015503 1472.063721,625.715454 
	C1460.149536,636.224365 1445.606934,640.992188 1430.336182,643.455750 
	C1408.042725,647.052063 1385.818115,646.286255 1364.116699,639.625427 
	C1347.023926,634.379150 1332.216187,625.682800 1324.956299,608.249207 
	C1322.851562,603.194763 1321.687256,597.365601 1321.668579,591.886169 
	C1321.519775,548.258240 1321.750854,504.628906 1321.865967,460.000000 
z"/>
<path fill="#FEFEFE" opacity="1.000000" stroke="none" 
	d="
M1712.526855,485.533295 
	C1711.898438,454.049438 1711.274048,423.519440 1710.638062,392.426971 
	C1755.386108,392.426971 1799.572266,392.426971 1844.775269,392.426971 
	C1847.071289,404.199371 1849.497070,416.159668 1851.726929,428.156372 
	C1860.116089,473.291565 1868.448120,518.437439 1876.784912,563.582336 
	C1878.476440,572.742676 1879.996582,581.935730 1881.783569,591.076965 
	C1882.926636,596.924194 1881.846924,602.174377 1879.077271,607.419128 
	C1870.964600,622.781067 1857.837280,632.121094 1841.960815,637.523071 
	C1816.240112,646.274536 1789.935547,648.514465 1763.292847,641.887451 
	C1750.464966,638.696594 1738.984375,632.891113 1729.618042,623.309509 
	C1720.645142,614.130432 1715.703613,603.598694 1715.484131,590.333069 
	C1714.911499,555.710999 1713.567383,521.101624 1712.526855,485.533295 
z"/>
<path fill="#FDFEFE" opacity="1.000000" stroke="none" 
	d="
M962.705688,470.673309 
	C970.289612,444.352417 977.613953,418.797394 985.116638,392.620178 
	C1027.791748,392.620178 1070.207642,392.620178 1113.707520,392.620178 
	C1112.878906,402.674805 1112.180664,412.482758 1111.242798,422.267700 
	C1108.894531,446.768341 1106.434814,471.258331 1104.024536,495.753052 
	C1100.832275,528.194092 1097.647827,560.635925 1094.453979,593.076782 
	C1092.987793,607.969116 1085.258301,619.239624 1073.683105,628.041748 
	C1063.431152,635.837463 1051.641113,640.251831 1039.041748,642.661743 
	C1012.271057,647.782288 986.033997,646.530640 960.705811,635.783142 
	C947.729309,630.276794 937.714294,621.371521 931.146912,608.677246 
	C927.756897,602.124634 927.126709,595.830139 929.237305,588.551086 
	C940.536804,549.580444 951.419434,510.488922 962.705688,470.673309 
z"/>
<path fill="#FBFCFC" opacity="1.000000" stroke="none" 
	d="
M1367.480469,946.294006 
	C1358.687378,932.350830 1359.313354,917.918457 1361.808105,903.235474 
	C1365.262085,882.906555 1374.012329,865.388611 1389.520020,851.588379 
	C1404.331665,838.407654 1421.758911,833.622314 1441.294800,836.322937 
	C1443.500122,836.627808 1445.625244,837.511536 1448.542847,838.341797 
	C1446.989136,849.261047 1445.628296,859.729126 1443.982544,870.152222 
	C1442.119263,881.953003 1440.566284,893.845703 1437.848145,905.457336 
	C1434.543091,919.576599 1427.916504,932.335876 1417.480957,942.556641 
	C1412.823120,947.118591 1407.280396,951.203979 1401.426270,954.027527 
	C1389.658203,959.703552 1378.024536,956.795227 1367.480469,946.294006 
z"/>
</svg>